# xmcd
#
# Track frame offsets:
#	150
#	19572
#	44063
#	72832
#	94889
#	115670
#	140324
#	165539
#	181609
#	200909
#	224299
#	244337
#	263680
#	293045
#	314897
#	335487
#
# Disc length: 4775 seconds
#
# Revision: 0
# Processed by: cddbd v1.5.2PL0 Copyright (c) Steve Scherf et al.
# Submitted via: EasyCDDAExtractor 8.2.3.1
#
DISCID=f212a510
DTITLE=Various Artist - Blues Now Here! Box4 CD1
DYEAR=2007
DGENRE=Blues
TTITLE0=WALTER TROUT - Sweet as a flower
TTITLE1=PAUL CAMILLERI - Anoather Sad Goodby
TTITLE2=STORM WARNING - Dangerous Mood
TTITLE3=COLIN JAMES - Far Away Like A Radio
TTITLE4=GILES - So Much Pain
TTITLE5=ER5IC BURDON - Highway 62
TTITLE6=The CATE BROTHERS - Out On A Limb
TTITLE7=RUDY ROTTA - You're Gone
TTITLE8=JIMMY D'LANE - It's Time
TTITLE9=J.J.CALE and ERIC CLAPTON - Hard To Thrill
TTITLE10=ALBERT CUMMINGS - Say You Love Me
TTITLE11=ROB ORLEMANS - Libertyville
TTITLE12=ALVIN ''Youngblood'' HART - Million Miles
TTITLE13=GARY MOORE - Ain't Nobody
TTITLE14=DEREK TRUCKS - I'd Rather Be Blind, Crippled and Crazy
TTITLE15=PHILLIP WALKER - Drag Me Down
EXTD=
EXTT0=
EXTT1=
EXTT2=
EXTT3=
EXTT4=
EXTT5=
EXTT6=
EXTT7=
EXTT8=
EXTT9=
EXTT10=
EXTT11=
EXTT12=
EXTT13=
EXTT14=
EXTT15=
PLAYORDER=
